# xmcd
#
# Track frame offsets:
#	150
#	16610
#	33027
#	51547
#
# Disc length: 932 seconds
#
# Revision: 1
# Processed by: cddbd v1.4PL0 Copyright (c) Steve Scherf et al.
# Submitted via: EasyCDDAExtractor 5.0.6
#
DISCID=2403a204
DTITLE=Onyx - Slam
DYEAR=1993
DGENRE=Rap
TTITLE0=Slam ( Vocal)
TTITLE1=Slam ( Instrumental)
TTITLE2=Da Nex Niguz (Vocal)
TTITLE3=Da Nex Niguz (Instrumental)
EXTD=
EXTT0=
EXTT1=
EXTT2=
EXTT3=
PLAYORDER=
